<svg id="Layer_1" data-name="Layer 1" xmlns="http://www.w3.org/2000/svg" xmlns:xlink="http://www.w3.org/1999/xlink" viewBox="0 0 375 575"><defs><style>.cls-1{fill:none;}.cls-2{clip-path:url(#clip-path);}</style><clipPath id="clip-path"><rect class="cls-1" width="375" height="575"/></clipPath></defs><title>banner-mobile</title><g class="cls-2"><path d="M493.68,548.44c-2.46-50-20-516.3-21.43-566.38l-.17-1.33L-177,5l-.34,2.53C-175.28,63.78-146,531-143.88,587.3l3.75.05c1.66-17.05,19.63-32,41.29-38.62s46.2-5.82,68.5-1.36C-17,550-4.2,553.94,9.25,556.3a178.26,178.26,0,0,0,75.64-3.38c25.69-6.92,48.83-19.68,75.76-22.73,44.61-5.06,84.42,17.32,126.75,27.77,20.31,5,41.77,7.31,63.23,8.61a715.6,715.6,0,0,0,95.12-.6c18-1.32,38.5-4.59,47.27-16.28"/></g></svg>