                <svg 
                xmlns="http://www.w3.org/2000/svg"
                xmlns:xlink="http://www.w3.org/1999/xlink"
                viewBox="0 0 278 81">
                <defs>
                
                                <clipPath id="left-to-right">
                                    <rect x="0" y="0" id="retangulo" width="0" height="100" fill="#f50" >
                                    </rect>
                                </clipPath>
                                <linearGradient id="meugradiente" x1="0%" y1="0%" x2="100%" y2="0%">
                                  <stop offset="0%" stop-color="#ff4614" />
                                  <stop offset="100%" stop-color="#ff8214" />
                                </linearGradient>
                                <linearGradient id="meugradientehover" x1="0%" y1="0%" x2="100%" y2="0%">
                                  <stop offset="0%" stop-color="#ff4614">
                                  
                                  </stop>
                                  <stop offset="100%" stop-color="#ff8214">
                                  
                                  </stop>
                                </linearGradient>
                </defs>
                <path class="fill" id="fillup" fill-rule="evenodd" stroke="url(#meugradiente)" clip-path="url(#left-to-right)" stroke-width="0px" stroke-linecap="butt" stroke-linejoin="miter" fill="none"
                d="M39.500,2.000 L236.500,2.000 C257.211,2.000 274.000,18.789 274.000,39.500 C274.000,60.211 257.211,77.000 236.500,77.000 L39.500,77.000 C18.789,77.000 2.000,60.211 2.000,39.500 C2.000,18.789 18.789,2.000 39.500,2.000 Z"/>
               <path class="meuBtn" id="meuBtn" fill-rule="evenodd" stroke="url(#meugradiente)" stroke-width="4px" stroke-linecap="butt" stroke-linejoin="miter" fill="none"
                d="M39.500,2.000 L236.500,2.000 C257.211,2.000 274.000,18.789 274.000,39.500 C274.000,60.211 257.211,77.000 236.500,77.000 L39.500,77.000 C18.789,77.000 2.000,60.211 2.000,39.500 C2.000,18.789 18.789,2.000 39.500,2.000 Z"/>
               </svg>
              