 <svg id="Layer_1" data-name="Layer 1" width="100%" height="1500" xmlns="http://www.w3.org/2000/svg" viewBox="0 0 1920 830" xml:space="preserve" preserveAspectRatio="none">
<path width="2100" height='1500' d="M2391.3,773.21c-6.3-145.41-40.93-1500.1-42.78-1645.62l-.64-3.85L-570.55-802.51l-1.75,7.35c4.13,163.49,91.67,1521,95.81,1684.5l16.83.14c9.05-49.55,91.19-93.15,189.12-112.42s208.11-17.15,307.89-4.32c59.63,7.67,116.78,19,177,25.74,110.83,12.46,230.75,8.86,340.13-10.2,116-20.22,221.21-57.4,342.48-66.42,200.91-14.93,377.61,49.91,566.82,80.06,90.76,14.47,186.93,21,283.24,24.69,141.66,5.39,284.89,4.64,427.34-2.24,80.8-3.9,173.42-13.51,213.88-47.53"/></svg>