<?xml version="1.0" encoding="UTF-8" standalone="no"?>
<svg
   xmlns:dc="http://purl.org/dc/elements/1.1/"
   xmlns:cc="http://creativecommons.org/ns#"
   xmlns:rdf="http://www.w3.org/1999/02/22-rdf-syntax-ns#"
   xmlns:svg="http://www.w3.org/2000/svg"
   xmlns="http://www.w3.org/2000/svg"
   viewBox="0 0 805.50403 467.64801"
   height="467.64801"
   width="805.50403"
   xml:space="preserve"
   id="svg2"
   version="1.1"><metadata
     id="metadata8"><rdf:RDF><cc:Work
         rdf:about=""><dc:format>image/svg+xml</dc:format><dc:type
           rdf:resource="http://purl.org/dc/dcmitype/StillImage" /></cc:Work></rdf:RDF></metadata><defs
     id="defs6"><clipPath
       id="clipPath18"
       clipPathUnits="userSpaceOnUse"><path
         id="path16"
         d="M 0,350.736 H 604.128 V 0 H 0 Z" /></clipPath></defs><g
     transform="matrix(1.3333333,0,0,-1.3333333,0,467.648)"
     id="g10"><g
       id="g12"><g
         clip-path="url(#clipPath18)"
         id="g14"><g
           transform="translate(604.1279,9.709)"
           id="g20"><path
             id="path22"
             style="fill:#000000;fill-opacity:1;fill-rule:nonzero;stroke:none"
             d="m 0,0 c -0.542,30.075 -0.624,310.152 -0.247,340.228 l -0.111,0.799 h -603.371 l -0.399,-1.509 c 0,-33.802 11,-314.739 11,-348.54 l 3.477,-0.117 c 2.129,10.189 19.328,18.77 39.661,22.24 20.334,3.469 43.088,2.457 63.637,-0.715 12.281,-1.896 24.029,-4.532 36.43,-6.243 22.835,-3.151 47.631,-3.034 70.328,0.333 24.083,3.571 46.006,10.705 71.108,11.935 41.59,2.036 77.758,-12.284 116.694,-19.501 18.677,-3.463 38.514,-5.32 58.393,-6.579 29.241,-1.853 58.838,-2.446 88.306,-1.769 16.714,0.384 35.9,1.886 44.438,8.705" /></g></g></g></g></svg>